# AST/ASF file generated using VICON BodyLanguage
# -----------------------------------------------
:version 1.10
:name VICON
:units
  mass 1.0
  length 0.45
  angle deg
:documentation
   .ast/.asf automatically generated from VICON data using
   VICON BodyBuilder and BodyLanguage model FoxedUp or BRILLIANT.MOD
:root
   order TX TY TZ RX RY RZ
   axis XYZ
   position 0 0 0  
   orientation 0 0 0 
:bonedata
  begin
     id 1 
     name lhipjoint
     direction 0.650112 -0.723553 0.232005 
     length 2.45805 
     axis 0 0 0  XYZ
  end
  begin
     id 2 
     name lfemur
     direction 0.34202 -0.939693 0  
     length 7.00073  
     axis 0 0 20  XYZ
    dof rx ry rz
    limits (-160.0 20.0)
           (-70.0 70.0)
           (-60.0 70.0)
  end
  begin
     id 3 
     name ltibia
     direction 0.34202 -0.939693 0   
     length 7.8748   
     axis 0 0 20   XYZ
    dof rx
    limits (-10.0 170.0)
  end
  begin
     id 4 
     name lfoot
     direction 0.0542825 -0.14914 0.987325   
     length 1.75978   
     axis -90 7.62852e-016 20   XYZ
    dof rx rz
    limits (-45.0 90.0)
           (-70.0 20.0)
  end
  begin
     id 5 
     name ltoes
     direction 1.53509e-011 -4.21906e-011 1   
     length 0.893912   
     axis -90 7.62852e-016 20   XYZ
    dof rx
    limits (-90.0 20.0)
  end
  begin
     id 6 
     name rhipjoint
     direction -0.637897 -0.733345 0.235145   
     length 2.42522  
     axis 0 0 0  XYZ 
  end
  begin
     id 7 
     name rfemur
     direction -0.34202 -0.939693 0   
     length 7.02549   
     axis 0 0 -20   XYZ
    dof rx ry rz
    limits (-160.0 20.0)
           (-70.0 70.0)
           (-70.0 60.0)
  end
  begin
     id 8 
     name rtibia
     direction -0.34202 -0.939693 0   
     length 7.71512   
     axis 0 0 -20   XYZ
    dof rx
    limits (-10.0 170.0)
 end
 begin
     id 9 
     name rfoot
     direction -0.0822618 -0.226012 0.970645   
     length 1.90014  
     axis -90 -7.62852e-016 -20   XYZ
    dof rx rz
    limits (-45.0 90.0)
           (-20.0 70.0)
  end
  begin
     id 10 
     name rtoes
     direction -1.53542e-011 -4.21872e-011 1   
     length 0.957341   
     axis -90 -7.62852e-016 -20   XYZ
    dof rx
    limits (-90.0 20.0)
  end
  begin
     id 11 
     name lowerback
     direction -0.0022947 0.999774 -0.0211557   
     length 1.89909   
     axis 0 0 0   XYZ
    dof rx ry rz
    limits (-20.0 45.0)
           (-30.0 30.0)
           (-30.0 30.0)
  end
  begin
     id 12 
     name upperback
     direction 0.0107737 0.998635 0.0511027   
     length 1.8853   
     axis 0 0 0   XYZ
    dof rx ry rz
    limits (-20.0 45.0)
           (-30.0 30.0)
           (-30.0 30.0)
  end
  begin
     id 13 
     name thorax
     direction 0.011824 0.998136 0.0598754   
     length 1.88911   
     axis 0 0 0   XYZ
    dof rx ry rz
    limits (-20.0 45.0)
           (-30.0 30.0)
           (-30.0 30.0)
  end
  begin
     id 14 
     name lowerneck
     direction -0.0685355 0.990319 0.120714   
     length 1.91222   
     axis 0 0 0   XYZ
    dof rx ry rz
    limits (-20.0 45.0)
           (-30.0 30.0)
           (-30.0 30.0)
  end
  begin
     id 15 
     name upperneck
     direction 0.0886204 0.955665 -0.280805   
     length 1.92526   
     axis 0 0 0   XYZ
    dof rx ry rz
    limits (-20.0 45.0)
           (-30.0 30.0)
           (-30.0 30.0)
  end
  begin
     id 16
     name head
     direction 0.0233423 0.993502 -0.111393  
     length 1.96056  
     axis 0 0 0   XYZ
    dof rx ry rz
    limits (-20.0 45.0)
           (-30.0 30.0)
           (-30.0 30.0)
  end
  begin
     id 17 
     name lclavicle
     direction 0.941873 0.32922 0.0670041  
     length 3.31705  
     axis 0 0 0   XYZ
    dof ry rz
    limits (-20.0 10.0)
           (0.0 20.0)
  end
  begin
     id 18 
     name lhumerus
     direction 1 -4.4898e-011 3.38707e-028   
     length 5.29277   
     axis 180 -30 -90   XYZ
    dof rx ry rz
    limits (-60.0 90.0)
           (-90.0 90.0)
           (-90.0 90.0)
  end
  begin
     id 19
     name lradius
     direction 1 -4.48952e-011 1.63213e-028   
     length 2.85226   
     axis 180 -30 -90   XYZ
    dof rx
    limits (-10.0 170.0)
  end
  begin
     id 20
     name lwrist
     direction 1 -4.49001e-011 1.27856e-027   
     length 1.42613   
     axis -1.61767e-015 90 90   XYZ
    dof ry
    limits (-180.0 0.0)
 end
  begin
     id 21 
     name lhand
     direction 1 -4.48976e-011 2.55931e-027   
     length 0.602097   
     axis -1.63363e-015 90 90   XYZ
    dof rx rz
    limits (-90.0 90.0)
           (-45.0 45.0)
  end
  begin
     id 22 
     name lfingers
     direction 1 -4.48986e-011 5.11684e-027   
     length 0.485426   
     axis -3.26723e-015 90 90   XYZ
    dof rx
    limits (0.0 90.0)
  end
  begin
     id 23
     name lthumb
     direction 0.707107 -6.34915e-011 0.707107   
     length 0.696978   
     axis -90 45 -2.25915e-014   XYZ
    dof rx rz
    limits (-45.0 45.0)
           (-45.0 45.0)
  end
  begin
     id 24 
     name rclavicle
     direction -0.939974 0.327078 0.0973096   
     length 3.10337  
     axis 0 0 0   XYZ 
    dof ry rz
    limits (-10.0 20.0)
           (-20.0 0.0)
  end
  begin
     id 25 
     name rhumerus
     direction -1 -4.48975e-011 1.83745e-027  
     length 5.13304   
     axis 180 30 90   XYZ
    dof rx ry rz
    limits (-90.0 60.0)
           (-90.0 90.0)
           (-90.0 90.0)
  end
  begin
     id 26 
     name rradius
     direction -1 -4.48977e-011 7.1775e-029   
     length 2.74305   
     axis 180 30 90   XYZ
    dof rx
    limits (-10.0 170.0)
  end
  begin
     id 27 
     name rwrist
     direction -1 -4.48977e-011 1.27963e-027   
     length 1.37152   
     axis -1.61767e-015 -90 -90   XYZ
    dof ry
    limits (-180.0 0.0)
  end
  begin
     id 28
     name rhand
     direction -1 -4.4888e-011 2.56782e-027   
     length 0.767976   
     axis -1.63363e-015 -90 -90   XYZ
    dof rx rz
    limits (-90.0 90.0)
           (-45.0 45.0)
  end
  begin
     id 29
     name rfingers
     direction -1 -4.48947e-011 5.12384e-027   
     length 0.619162   
     axis -3.26723e-015 -90 -90   XYZ
    dof rx
    limits (0.0 90.0)
  end
  begin
     id 30
     name rthumb
     direction -0.707107 -6.34857e-011 0.707107   
     length 0.888997   
     axis -90 -45 2.25915e-014   XYZ
    dof rx rz
    limits (-45.0 45.0)
           (-45.0 45.0)
  end
:hierarchy
  begin
    root lhipjoint rhipjoint lowerback
    lhipjoint lfemur
    lfemur ltibia
    ltibia lfoot
    lfoot ltoes
    rhipjoint rfemur
    rfemur rtibia
    rtibia rfoot
    rfoot rtoes
    lowerback upperback
    upperback thorax
    thorax lowerneck lclavicle rclavicle
    lowerneck upperneck
    upperneck head
    lclavicle lhumerus
    lhumerus lradius
    lradius lwrist
    lwrist lhand lthumb
    lhand lfingers
    rclavicle rhumerus
    rhumerus rradius
    rradius rwrist
    rwrist rhand rthumb
    rhand rfingers
  end

#!OML:ASF F:\VICON\USERDATA\INSTALL\rory3\rory3.ASF
:FULLY-SPECIFIED
:DEGREES
1283
root 0.149499 17.4311 0.487815 3.77149 4.80676 -3.3043
lowerback -1.38207 2.47622 -4.2193
upperback -3.87599 3.23908 -1.66298
thorax -3.35876 1.71886 0.589109
lowerneck 0.145574 -18.3645 -23.7967
upperneck 13.2057 -30.6616 30.0554
head 13.5755 -14.4318 9.62883
rclavicle -8.84592e-015 3.02153e-014
rhumerus 67.9383 42.0966 -1.88897
rradius 91.123
rwrist 17.5134
rhand -2.61479 15.0633
rfingers 7.12502
rthumb 23.0836 -13.574
lclavicle -8.84592e-015 3.02153e-014
lhumerus -27.6043 8.28943 82.0292
lradius 14.9257
lwrist -32.2379
lhand 2.9543 22.9963
lfingers 7.12502
lthumb 28.4169 50.8589
rfemur 0 0 0
rtibia 0
rfoot 0 0
rtoes 0
lfemur -9.19168 -16.7238 -13.7641
ltibia 20.6107
lfoot -14.912 8.58665
ltoes -19.9313
1284
root 0.155778 17.4311 0.488742 3.75303 4.84104 -3.3397
lowerback -1.3389 2.36241 -4.17047
upperback -3.85459 3.08945 -1.52489
thorax -3.35907 1.64488 0.7059
lowerneck -0.0435409 -18.3042 -23.9635
upperneck 13.3443 -30.5007 29.8484
head 13.5909 -14.3517 9.60725
rclavicle -2.36554e-014 1.43125e-014
rhumerus 65.2509 41.863 -5.87347
rradius 90.9875
rwrist 16.7759
rhand -3.4658 14.4974
rfingers 7.12502
rthumb 22.2669 -14.2398
lclavicle -2.36554e-014 1.43125e-014
lhumerus -27.8316 8.80587 81.881
lradius 15.0381
lwrist -32.3251
lhand 3.04275 23.0561
lfingers 7.12502
lthumb 28.5014 50.9045
rfemur 0 0 0
rtibia 0
rfoot 0 0
rtoes 0
lfemur -9.17981 -16.6711 -13.7523
ltibia 20.6065
lfoot -14.9785 8.55118
ltoes -20.4081
1285
root 0.161539 17.43 0.488599 3.76377 4.84146 -3.33387
lowerback -1.33836 2.23696 -4.16448
upperback -3.83164 2.92619 -1.39494
thorax -3.33462 1.56489 0.840461
lowerneck -0.256816 -18.2475 -24.0838
upperneck 13.5403 -30.334 29.5662
head 13.6033 -14.2653 9.55086
rclavicle 1.87852e-014 -4.77083e-015
rhumerus 62.4544 41.5209 -10.1343
rradius 90.8651
rwrist 16.1287
rhand -4.21841 13.7505
rfingers 7.12502
rthumb 21.5442 -15.0712
lclavicle 1.87852e-014 -4.77083e-015
lhumerus -28.0686 9.16402 81.8146
lradius 15.1395
lwrist -32.2503
lhand 2.88138 23.0112
lfingers 7.12502
lthumb 28.3472 50.8853
rfemur 0 0 0
rtibia 0
rfoot 0 0
rtoes 0
lfemur -9.19385 -16.6101 -13.7654
ltibia 20.5934
lfoot -15.1517 8.51666
ltoes -20.9072
1286
root 0.167347 17.4282 0.4891 3.83028 4.81278 -3.26101
lowerback -1.3713 2.13761 -4.22042
upperback -3.85569 2.79654 -1.30846
thorax -3.34231 1.50389 0.963908
lowerneck -0.409032 -18.1807 -24.2109
upperneck 13.7631 -30.1831 29.319
head 13.6319 -14.1915 9.51392
rclavicle 4.31363e-014 3.18055e-015
rhumerus 59.5516 41.0479 -14.5167
rradius 90.6508
rwrist 15.5736
rhand -5.06495 13.3021
rfingers 7.12502
rthumb 20.731 -15.6106
lclavicle 4.31363e-014 3.18055e-015
lhumerus -28.3674 9.29056 81.7906
lradius 15.2647
lwrist -32.097
lhand 2.68521 22.9429
lfingers 7.12502
lthumb 28.1597 50.8481
rfemur 0 0 0
rtibia 0
rfoot 0 0
rtoes 0
lfemur -9.25632 -16.5001 -13.842
ltibia 20.5823
lfoot -15.1951 8.41066
ltoes -20.9322
1287
root 0.175264 17.4286 0.488151 3.88073 4.78382 -3.15484
lowerback -1.30892 2.07842 -4.25141
upperback -3.90879 2.71353 -1.25998
thorax -3.43263 1.4664 1.02861
lowerneck -0.530396 -18.1516 -24.3641
upperneck 14.0087 -30.0997 29.0615
head 13.6887 -14.1513 9.45762
rclavicle -1.16289e-014 1.74931e-014
rhumerus 56.4982 40.3491 -19.0561
rradius 90.3571
rwrist 15.1861
rhand -5.66266 13.1532
rfingers 7.12502
rthumb 20.1566 -15.8211
lclavicle -1.16289e-014 1.74931e-014
lhumerus -28.6058 9.3303 81.7721
lradius 15.2813
lwrist -31.9675
lhand 2.4414 22.6793
lfingers 7.12502
lthumb 27.9266 50.6226
rfemur 0 0 0
rtibia 0
rfoot 0 0
rtoes 0
lfemur -9.29162 -16.4493 -13.9797
ltibia 20.5564
lfoot -15.1499 8.39223
ltoes -20.7349
1288
root 0.182051 17.4281 0.486773 3.88646 4.7219 -3.15271
lowerback -1.23319 2.04332 -4.16538
upperback -3.92436 2.6642 -1.20714
thorax -3.48709 1.44108 1.0328
lowerneck -0.704379 -18.1638 -24.4389
upperneck 14.2244 -30.0574 28.7888
head 13.7383 -14.1212 9.36209
rclavicle -3.63776e-014 -2.38542e-015
rhumerus 53.3061 39.3972 -23.9053
rradius 89.9671
rwrist 15.0846
rhand -5.89714 13.1441
rfingers 7.12502
rthumb 19.9312 -15.8538
lclavicle -3.63776e-014 -2.38542e-015
lhumerus -28.7412 9.06344 81.834
lradius 15.303
lwrist -31.4754
lhand 2.01853 22.2908
lfingers 7.12502
lthumb 27.5223 50.2992
rfemur 0 0 0
rtibia 0
rfoot 0 0
rtoes 0
lfemur -9.26187 -16.4477 -14.0093
ltibia 20.5023
lfoot -15.1331 8.30365
ltoes -19.5104
